<?xml version="1.0" standalone="no"?>
<!DOCTYPE svg PUBLIC "-//W3C//DTD SVG 20010904//EN"
 "http://www.w3.org/TR/2001/REC-SVG-20010904/DTD/svg10.dtd">
<svg version="1.0" xmlns="http://www.w3.org/2000/svg"
 width="494.000000pt" height="503.000000pt" viewBox="0 0 494.000000 503.000000"
 preserveAspectRatio="xMidYMid meet">

<g transform="translate(0.000000,503.000000) scale(0.100000,-0.100000)"
fill="#000000" stroke="none">
<path d="M1508 4988 c31 -50 387 -660 400 -684 10 -20 -10 -59 -178 -340 -104
-176 -205 -345 -224 -376 l-35 -58 -473 0 -473 0 -250 -431 c-137 -238 -254
-439 -258 -448 -6 -12 60 -134 239 -441 135 -233 251 -434 257 -447 l10 -23
466 0 466 0 149 -258 c348 -599 859 -1462 866 -1462 8 0 401 660 797 1340
l219 375 479 5 479 5 131 225 c347 596 365 628 365 663 0 26 -45 112 -197 373
-108 186 -220 380 -249 429 l-52 90 -471 3 -471 2 -14 23 c-29 47 -413 693
-424 714 -11 19 -1 41 87 190 54 92 150 257 214 366 l116 197 -87 0 -87 0 -57
-98 c-31 -53 -116 -200 -189 -327 -73 -126 -138 -233 -143 -237 -6 -4 -203 -8
-437 -8 l-427 0 -186 320 c-103 175 -189 326 -192 335 -5 12 -24 15 -96 15
l-90 0 20 -32z m999 -1075 c12 -7 32 -28 45 -45 20 -29 23 -47 26 -153 4 -116
3 -121 -22 -158 l-26 -39 24 -29 c30 -36 39 -89 34 -212 -3 -107 -17 -135 -79
-172 -32 -19 -52 -20 -359 -20 l-325 0 -3 425 -2 425 332 -5 c240 -4 339 -8
355 -17z m631 -284 c52 -18 65 -51 70 -171 3 -77 1 -112 -8 -123 -10 -12 -48
-15 -223 -15 l-210 0 6 -42 c3 -23 14 -48 23 -55 13 -10 68 -13 206 -13 143 0
188 -3 189 -12 3 -26 -3 -42 -27 -80 l-25 -40 -187 4 c-217 4 -241 11 -273 81
-16 35 -19 66 -19 197 0 204 16 242 109 271 40 11 334 10 369 -2z m-1572 -384
c44 -77 132 -228 194 -335 63 -107 124 -213 136 -235 l22 -40 -216 -373 -217
-372 -439 2 -440 3 -41 70 c-23 39 -120 205 -216 369 l-173 300 36 65 c20 36
106 188 193 336 86 149 168 289 181 313 l25 42 437 -2 437 -3 81 -140z m3001
-220 c112 -192 209 -360 215 -372 9 -19 -16 -68 -207 -397 l-218 -376 -436 0
-436 0 -218 377 -217 376 116 201 c65 110 162 279 217 374 l99 172 440 -2 440
-3 205 -350z m-1461 -835 c108 -184 204 -351 216 -371 l20 -36 -234 -404
c-297 -513 -631 -1079 -638 -1079 -3 0 -21 28 -41 63 -20 34 -107 184 -194
332 -88 149 -266 454 -397 679 l-237 410 18 30 c10 17 108 185 217 374 l198
342 439 -2 439 -3 194 -335z"/>
<path d="M1972 3685 l3 -97 219 2 c142 0 224 5 233 12 20 16 18 142 -4 159
-12 11 -68 15 -235 17 l-219 3 3 -96z"/>
<path d="M1970 3340 l0 -100 218 0 c266 0 262 -2 262 100 0 104 9 100 -256
100 l-224 0 0 -100z"/>
<path d="M2797 3507 c-10 -7 -21 -31 -24 -55 l-6 -42 161 0 c179 0 179 0 164
70 l-8 35 -135 3 c-99 2 -139 -1 -152 -11z"/>
</g>
</svg>
